<mxfile host="app.diagrams.net" agent="Mozilla/5.0 (Macintosh; Intel Mac OS X 10_15_7) AppleWebKit/537.36 (KHTML, like Gecko) Chrome/135.0.0.0 Safari/537.36" version="27.1.5">
  <diagram name="Page-1" id="OlAcMU3XX1PD27J8TAXF">
    <mxGraphModel dx="1896" dy="2404" grid="1" gridSize="10" guides="1" tooltips="1" connect="1" arrows="1" fold="1" page="1" pageScale="1" pageWidth="850" pageHeight="1100" math="0" shadow="0">
      <root>
        <mxCell id="0" />
        <mxCell id="1" parent="0" />
        <mxCell id="BDItZOyIdzqSZIBmuyEr-3" value="" style="shape=cylinder3;whiteSpace=wrap;html=1;boundedLbl=1;backgroundOutline=1;size=15;" vertex="1" parent="1">
          <mxGeometry x="35" y="460" width="780" height="610" as="geometry" />
        </mxCell>
        <mxCell id="BDItZOyIdzqSZIBmuyEr-4" value="Orders" style="swimlane;whiteSpace=wrap;html=1;" vertex="1" parent="1">
          <mxGeometry x="325" y="640" width="200" height="200" as="geometry" />
        </mxCell>
        <mxCell id="BDItZOyIdzqSZIBmuyEr-8" value="id&lt;div&gt;user_id&lt;/div&gt;&lt;div&gt;status&lt;/div&gt;&lt;div&gt;&lt;br&gt;&lt;/div&gt;" style="text;html=1;align=center;verticalAlign=middle;whiteSpace=wrap;rounded=0;" vertex="1" parent="BDItZOyIdzqSZIBmuyEr-4">
          <mxGeometry x="25" y="70" width="60" height="30" as="geometry" />
        </mxCell>
        <mxCell id="BDItZOyIdzqSZIBmuyEr-5" value="Inventory" style="swimlane;whiteSpace=wrap;html=1;" vertex="1" parent="1">
          <mxGeometry x="560" y="640" width="200" height="200" as="geometry" />
        </mxCell>
        <mxCell id="BDItZOyIdzqSZIBmuyEr-11" value="id&lt;div&gt;available_count&lt;/div&gt;&lt;div&gt;&lt;br&gt;&lt;/div&gt;&lt;div&gt;&lt;br&gt;&lt;/div&gt;" style="text;html=1;align=center;verticalAlign=middle;whiteSpace=wrap;rounded=0;" vertex="1" parent="BDItZOyIdzqSZIBmuyEr-5">
          <mxGeometry x="30" y="70" width="60" height="30" as="geometry" />
        </mxCell>
        <mxCell id="BDItZOyIdzqSZIBmuyEr-6" value="Users" style="swimlane;whiteSpace=wrap;html=1;" vertex="1" parent="1">
          <mxGeometry x="80" y="640" width="200" height="200" as="geometry" />
        </mxCell>
        <mxCell id="BDItZOyIdzqSZIBmuyEr-7" value="id&lt;div&gt;name&lt;/div&gt;&lt;div&gt;address&lt;/div&gt;&lt;div&gt;phone&lt;/div&gt;&lt;div&gt;email&lt;/div&gt;&lt;div&gt;&lt;br&gt;&lt;/div&gt;" style="text;html=1;align=center;verticalAlign=middle;whiteSpace=wrap;rounded=0;" vertex="1" parent="BDItZOyIdzqSZIBmuyEr-6">
          <mxGeometry x="10" y="80" width="60" height="30" as="geometry" />
        </mxCell>
        <mxCell id="BDItZOyIdzqSZIBmuyEr-14" value="" style="rounded=1;whiteSpace=wrap;html=1;" vertex="1" parent="1">
          <mxGeometry x="60" y="-200" width="720" height="500" as="geometry" />
        </mxCell>
        <mxCell id="BDItZOyIdzqSZIBmuyEr-15" value="&lt;h1 style=&quot;margin-top: 0px;&quot;&gt;Order Management Service&lt;/h1&gt;&lt;p style=&quot;&quot;&gt;&lt;br&gt;&lt;/p&gt;" style="text;html=1;whiteSpace=wrap;overflow=hidden;rounded=0;align=center;" vertex="1" parent="1">
          <mxGeometry x="240" y="-200" width="365" height="50" as="geometry" />
        </mxCell>
        <mxCell id="BDItZOyIdzqSZIBmuyEr-19" value="orders_controller" style="swimlane;whiteSpace=wrap;html=1;" vertex="1" parent="1">
          <mxGeometry x="80" y="-70" width="200" height="200" as="geometry" />
        </mxCell>
        <mxCell id="BDItZOyIdzqSZIBmuyEr-22" value="&lt;font style=&quot;font-size: 14px;&quot;&gt;/placeoder&lt;/font&gt;&lt;div&gt;&lt;font size=&quot;3&quot;&gt;/update_status/:id&lt;/font&gt;&lt;/div&gt;&lt;div&gt;&lt;font size=&quot;3&quot;&gt;/fetch/:id&lt;/font&gt;&lt;/div&gt;" style="text;html=1;align=left;verticalAlign=middle;whiteSpace=wrap;rounded=0;" vertex="1" parent="BDItZOyIdzqSZIBmuyEr-19">
          <mxGeometry x="30" y="60" width="60" height="30" as="geometry" />
        </mxCell>
        <mxCell id="BDItZOyIdzqSZIBmuyEr-23" style="edgeStyle=orthogonalEdgeStyle;rounded=0;orthogonalLoop=1;jettySize=auto;html=1;exitX=0.5;exitY=1;exitDx=0;exitDy=0;" edge="1" parent="BDItZOyIdzqSZIBmuyEr-19" source="BDItZOyIdzqSZIBmuyEr-22" target="BDItZOyIdzqSZIBmuyEr-22">
          <mxGeometry relative="1" as="geometry" />
        </mxCell>
        <mxCell id="BDItZOyIdzqSZIBmuyEr-21" value="inventory_controller" style="swimlane;whiteSpace=wrap;html=1;" vertex="1" parent="1">
          <mxGeometry x="560" y="-70" width="200" height="200" as="geometry" />
        </mxCell>
        <mxCell id="BDItZOyIdzqSZIBmuyEr-24" value="&lt;font style=&quot;font-size: 14px;&quot;&gt;/create_inventory&lt;/font&gt;&lt;div&gt;&lt;font size=&quot;3&quot;&gt;/updateInventory/:id&lt;/font&gt;&lt;/div&gt;&lt;div&gt;&lt;br&gt;&lt;/div&gt;" style="text;html=1;align=left;verticalAlign=middle;whiteSpace=wrap;rounded=0;" vertex="1" parent="1">
          <mxGeometry x="570" y="-20" width="60" height="30" as="geometry" />
        </mxCell>
        <mxCell id="BDItZOyIdzqSZIBmuyEr-25" value="user_controller" style="swimlane;whiteSpace=wrap;html=1;" vertex="1" parent="1">
          <mxGeometry x="310" y="-70" width="200" height="200" as="geometry" />
        </mxCell>
        <mxCell id="BDItZOyIdzqSZIBmuyEr-27" value="&lt;font style=&quot;font-size: 14px;&quot;&gt;/create_user&lt;/font&gt;&lt;div&gt;&lt;font size=&quot;3&quot;&gt;/update_user&lt;/font&gt;&lt;/div&gt;&lt;div&gt;&lt;font size=&quot;3&quot;&gt;/delete_user&lt;/font&gt;&lt;/div&gt;" style="text;html=1;align=left;verticalAlign=middle;whiteSpace=wrap;rounded=0;" vertex="1" parent="BDItZOyIdzqSZIBmuyEr-25">
          <mxGeometry x="30" y="50" width="60" height="30" as="geometry" />
        </mxCell>
        <mxCell id="BDItZOyIdzqSZIBmuyEr-30" value="" style="shape=flexArrow;endArrow=classic;startArrow=classic;html=1;rounded=0;entryX=0.5;entryY=1;entryDx=0;entryDy=0;exitX=0.492;exitY=0;exitDx=0;exitDy=0;exitPerimeter=0;" edge="1" parent="1" source="BDItZOyIdzqSZIBmuyEr-3" target="BDItZOyIdzqSZIBmuyEr-14">
          <mxGeometry width="100" height="100" relative="1" as="geometry">
            <mxPoint x="380" y="460" as="sourcePoint" />
            <mxPoint x="480" y="360" as="targetPoint" />
          </mxGeometry>
        </mxCell>
        <mxCell id="BDItZOyIdzqSZIBmuyEr-31" value="" style="image;sketch=0;aspect=fixed;html=1;points=[];align=center;fontSize=12;image=img/lib/mscae/Cache_Redis_Product.svg;" vertex="1" parent="1">
          <mxGeometry x="1050" width="180" height="151.2" as="geometry" />
        </mxCell>
        <mxCell id="BDItZOyIdzqSZIBmuyEr-32" value="" style="outlineConnect=0;dashed=0;verticalLabelPosition=bottom;verticalAlign=top;align=center;html=1;shape=mxgraph.aws3.queue;fillColor=#D9A741;gradientColor=none;" vertex="1" parent="1">
          <mxGeometry x="990" y="290" width="280" height="138" as="geometry" />
        </mxCell>
      </root>
    </mxGraphModel>
  </diagram>
</mxfile>
